<svg xmlns="http://www.w3.org/2000/svg" xmlns:xlink="http://www.w3.org/1999/xlink" width="523pt" height="943pt" viewBox="0.00 0.00 523.09 943.20">
<g id="graph0" class="graph" transform="scale(1 1) rotate(0) translate(4 939.2)">
<title>model_graph</title>
<polygon fill="white" stroke="none" points="-4,4 -4,-939.2 519.09,-939.2 519.09,4 -4,4"/>
<!-- django_contrib_auth_models_AbstractUser -->
<g id="node1" class="node">
<title>django_contrib_auth_models_AbstractUser</title>
<polygon fill="white" stroke="none" points="80.91,-227.2 80.91,-395.2 265.72,-395.2 265.72,-227.2 80.91,-227.2"/>
<polygon fill="#1b563f" stroke="none" points="81.91,-364.2 81.91,-394.2 264.72,-394.2 264.72,-364.2 81.91,-364.2"/>
<text text-anchor="start" x="135.72" y="-381.2" font-family="Roboto" font-size="8.00">    </text>
<text text-anchor="start" x="143.72" y="-381.2" font-family="Roboto" font-weight="bold" font-size="10.00" fill="white">    AbstractUser</text>
<text text-anchor="start" x="86.91" y="-371.2" font-family="Roboto" font-weight="bold" font-size="10.00" fill="white">&lt;</text>
<text text-anchor="start" x="92.61" y="-371.2" font-family="Roboto" font-weight="bold" font-style="italic" font-size="10.00" fill="white">AbstractBaseUser,PermissionsMixin</text>
<text text-anchor="start" x="244.02" y="-371.2" font-family="Roboto" font-weight="bold" font-size="10.00" fill="white">&gt;    </text>
<text text-anchor="start" x="83.91" y="-356" font-family="Roboto" font-size="8.00">    </text>
<text text-anchor="start" x="91.91" y="-356" font-family="Roboto" font-size="8.00">date_joined</text>
<text text-anchor="start" x="129.23" y="-356" font-family="Roboto" font-size="8.00">    </text>
<text text-anchor="start" x="171.55" y="-356" font-family="Roboto" font-size="8.00">    </text>
<text text-anchor="start" x="179.55" y="-356" font-family="Roboto" font-size="8.00">DateTimeField</text>
<text text-anchor="start" x="227.98" y="-356" font-family="Roboto" font-size="8.00">    </text>
<text text-anchor="start" x="83.91" y="-342.4" font-family="Roboto" font-size="8.00">    </text>
<text text-anchor="start" x="91.91" y="-342.4" font-family="Roboto" font-size="8.00" fill="#7b7b7b">email</text>
<text text-anchor="start" x="109.68" y="-342.4" font-family="Roboto" font-size="8.00">    </text>
<text text-anchor="start" x="171.55" y="-342.4" font-family="Roboto" font-size="8.00">    </text>
<text text-anchor="start" x="179.55" y="-342.4" font-family="Roboto" font-size="8.00" fill="#7b7b7b">EmailField</text>
<text text-anchor="start" x="215.1" y="-342.4" font-family="Roboto" font-size="8.00">    </text>
<text text-anchor="start" x="83.91" y="-328.8" font-family="Roboto" font-size="8.00">    </text>
<text text-anchor="start" x="91.91" y="-328.8" font-family="Roboto" font-size="8.00" fill="#7b7b7b">first_name</text>
<text text-anchor="start" x="126.13" y="-328.8" font-family="Roboto" font-size="8.00">    </text>
<text text-anchor="start" x="171.55" y="-328.8" font-family="Roboto" font-size="8.00">    </text>
<text text-anchor="start" x="179.55" y="-328.8" font-family="Roboto" font-size="8.00" fill="#7b7b7b">CharField</text>
<text text-anchor="start" x="211.54" y="-328.8" font-family="Roboto" font-size="8.00">    </text>
<text text-anchor="start" x="83.91" y="-315.2" font-family="Roboto" font-size="8.00">    </text>
<text text-anchor="start" x="91.91" y="-315.2" font-family="Roboto" font-size="8.00">is_active</text>
<text text-anchor="start" x="120.35" y="-315.2" font-family="Roboto" font-size="8.00">    </text>
<text text-anchor="start" x="171.55" y="-315.2" font-family="Roboto" font-size="8.00">    </text>
<text text-anchor="start" x="179.55" y="-315.2" font-family="Roboto" font-size="8.00">BooleanField</text>
<text text-anchor="start" x="222.65" y="-315.2" font-family="Roboto" font-size="8.00">    </text>
<text text-anchor="start" x="83.91" y="-301.6" font-family="Roboto" font-size="8.00">    </text>
<text text-anchor="start" x="91.91" y="-301.6" font-family="Roboto" font-size="8.00">is_staff</text>
<text text-anchor="start" x="115.47" y="-301.6" font-family="Roboto" font-size="8.00">    </text>
<text text-anchor="start" x="171.55" y="-301.6" font-family="Roboto" font-size="8.00">    </text>
<text text-anchor="start" x="179.55" y="-301.6" font-family="Roboto" font-size="8.00">BooleanField</text>
<text text-anchor="start" x="222.65" y="-301.6" font-family="Roboto" font-size="8.00">    </text>
<text text-anchor="start" x="83.91" y="-288" font-family="Roboto" font-size="8.00">    </text>
<text text-anchor="start" x="91.91" y="-288" font-family="Roboto" font-style="italic" font-size="8.00">is_superuser</text>
<text text-anchor="start" x="132.81" y="-288" font-family="Roboto" font-size="8.00">    </text>
<text text-anchor="start" x="171.55" y="-288" font-family="Roboto" font-size="8.00">    </text>
<text text-anchor="start" x="179.55" y="-288" font-family="Roboto" font-style="italic" font-size="8.00">BooleanField</text>
<text text-anchor="start" x="223.09" y="-288" font-family="Roboto" font-size="8.00">    </text>
<text text-anchor="start" x="83.91" y="-274.4" font-family="Roboto" font-size="8.00">    </text>
<text text-anchor="start" x="91.91" y="-274.4" font-family="Roboto" font-style="italic" font-size="8.00" fill="#7b7b7b">last_login</text>
<text text-anchor="start" x="123.92" y="-274.4" font-family="Roboto" font-size="8.00">    </text>
<text text-anchor="start" x="171.55" y="-274.4" font-family="Roboto" font-size="8.00">    </text>
<text text-anchor="start" x="179.55" y="-274.4" font-family="Roboto" font-style="italic" font-size="8.00" fill="#7b7b7b">DateTimeField</text>
<text text-anchor="start" x="227.98" y="-274.4" font-family="Roboto" font-size="8.00">    </text>
<text text-anchor="start" x="83.91" y="-260.8" font-family="Roboto" font-size="8.00">    </text>
<text text-anchor="start" x="91.91" y="-260.8" font-family="Roboto" font-size="8.00" fill="#7b7b7b">last_name</text>
<text text-anchor="start" x="124.35" y="-260.8" font-family="Roboto" font-size="8.00">    </text>
<text text-anchor="start" x="171.55" y="-260.8" font-family="Roboto" font-size="8.00">    </text>
<text text-anchor="start" x="179.55" y="-260.8" font-family="Roboto" font-size="8.00" fill="#7b7b7b">CharField</text>
<text text-anchor="start" x="211.54" y="-260.8" font-family="Roboto" font-size="8.00">    </text>
<text text-anchor="start" x="83.91" y="-247.2" font-family="Roboto" font-size="8.00">    </text>
<text text-anchor="start" x="91.91" y="-247.2" font-family="Roboto" font-style="italic" font-size="8.00">password</text>
<text text-anchor="start" x="122.59" y="-247.2" font-family="Roboto" font-size="8.00">    </text>
<text text-anchor="start" x="171.55" y="-247.2" font-family="Roboto" font-size="8.00">    </text>
<text text-anchor="start" x="179.55" y="-247.2" font-family="Roboto" font-style="italic" font-size="8.00">CharField</text>
<text text-anchor="start" x="212.88" y="-247.2" font-family="Roboto" font-size="8.00">    </text>
<text text-anchor="start" x="83.91" y="-233.6" font-family="Roboto" font-size="8.00">    </text>
<text text-anchor="start" x="91.91" y="-233.6" font-family="Roboto" font-size="8.00">username</text>
<text text-anchor="start" x="122.57" y="-233.6" font-family="Roboto" font-size="8.00">    </text>
<text text-anchor="start" x="171.55" y="-233.6" font-family="Roboto" font-size="8.00">    </text>
<text text-anchor="start" x="179.55" y="-233.6" font-family="Roboto" font-size="8.00">CharField</text>
<text text-anchor="start" x="211.54" y="-233.6" font-family="Roboto" font-size="8.00">    </text>
<polygon fill="none" stroke="black" points="80.91,-227.2 80.91,-395.2 265.72,-395.2 265.72,-227.2 80.91,-227.2"/>
</g>
<!-- django_contrib_auth_base_user_AbstractBaseUser -->
<g id="node8" class="node">
<title>django_contrib_auth_base_user_AbstractBaseUser</title>
<polygon fill="white" stroke="none" points="8,-113.6 8,-136 110.64,-136 110.64,-113.6 8,-113.6"/>
<polygon fill="#1b563f" stroke="none" points="8,-113.6 8,-136 110.64,-136 110.64,-113.6 8,-113.6"/>
<text text-anchor="start" x="12" y="-122.2" font-family="Roboto" font-size="8.00">  </text>
<text text-anchor="start" x="16" y="-122.2" font-family="Roboto" font-size="12.00" fill="white">AbstractBaseUser</text>
<text text-anchor="start" x="102.64" y="-122.2" font-family="Roboto" font-size="8.00">  </text>
</g>
<!-- django_contrib_auth_models_AbstractUser&#45;&gt;django_contrib_auth_base_user_AbstractBaseUser -->
<g id="edge1" class="edge">
<title>django_contrib_auth_models_AbstractUser-&gt;django_contrib_auth_base_user_AbstractBaseUser</title>
<path fill="none" stroke="black" d="M119.66,-223.4C103.67,-197.55 87.34,-171.13 75.71,-152.31"/>
<polygon fill="none" stroke="black" points="78.79,-150.64 70.55,-143.97 72.83,-154.32 78.79,-150.64"/>
<text text-anchor="middle" x="123.88" y="-198" font-family="Roboto" font-size="8.00"> abstract</text>
<text text-anchor="middle" x="123.88" y="-188.4" font-family="Roboto" font-size="8.00">inheritance</text>
</g>
<!-- django_contrib_auth_models_PermissionsMixin -->
<g id="node9" class="node">
<title>django_contrib_auth_models_PermissionsMixin</title>
<polygon fill="white" stroke="none" points="144.65,-113.6 144.65,-136 247.99,-136 247.99,-113.6 144.65,-113.6"/>
<polygon fill="#1b563f" stroke="none" points="144.65,-113.6 144.65,-136 247.99,-136 247.99,-113.6 144.65,-113.6"/>
<text text-anchor="start" x="148.65" y="-122.2" font-family="Roboto" font-size="8.00">  </text>
<text text-anchor="start" x="152.65" y="-122.2" font-family="Roboto" font-size="12.00" fill="white">PermissionsMixin</text>
<text text-anchor="start" x="239.99" y="-122.2" font-family="Roboto" font-size="8.00">  </text>
</g>
<!-- django_contrib_auth_models_AbstractUser&#45;&gt;django_contrib_auth_models_PermissionsMixin -->
<g id="edge2" class="edge">
<title>django_contrib_auth_models_AbstractUser-&gt;django_contrib_auth_models_PermissionsMixin</title>
<path fill="none" stroke="black" d="M184.14,-223.4C187.28,-198.27 190.48,-172.59 192.81,-153.89"/>
<polygon fill="none" stroke="black" points="196.26,-154.54 194.03,-144.19 189.31,-153.68 196.26,-154.54"/>
<text text-anchor="middle" x="205.99" y="-198" font-family="Roboto" font-size="8.00"> abstract</text>
<text text-anchor="middle" x="205.99" y="-188.4" font-family="Roboto" font-size="8.00">inheritance</text>
</g>
<!-- api_models_User -->
<g id="node2" class="node">
<title>api_models_User</title>
<polygon fill="white" stroke="none" points="243.66,-458.4 243.66,-640 374.98,-640 374.98,-458.4 243.66,-458.4"/>
<polygon fill="#1b563f" stroke="none" points="244.66,-609 244.66,-639 373.98,-639 373.98,-609 244.66,-609"/>
<text text-anchor="start" x="290.32" y="-626" font-family="Roboto" font-size="8.00">    </text>
<text text-anchor="start" x="298.32" y="-626" font-family="Roboto" font-weight="bold" font-size="10.00" fill="white">    User</text>
<text text-anchor="start" x="271.67" y="-616" font-family="Roboto" font-weight="bold" font-size="10.00" fill="white">&lt;</text>
<text text-anchor="start" x="277.37" y="-616" font-family="Roboto" font-weight="bold" font-style="italic" font-size="10.00" fill="white">AbstractUser</text>
<text text-anchor="start" x="331.26" y="-616" font-family="Roboto" font-weight="bold" font-size="10.00" fill="white">&gt;    </text>
<text text-anchor="start" x="246.66" y="-600.8" font-family="Roboto" font-size="8.00">    </text>
<text text-anchor="start" x="254.66" y="-600.8" font-family="Roboto" font-weight="bold" font-size="8.00">id</text>
<text text-anchor="start" x="261.33" y="-600.8" font-family="Roboto" font-size="8.00">    </text>
<text text-anchor="start" x="307.55" y="-600.8" font-family="Roboto" font-size="8.00">    </text>
<text text-anchor="start" x="315.55" y="-600.8" font-family="Roboto" font-weight="bold" font-size="8.00">BigAutoField</text>
<text text-anchor="start" x="361.33" y="-600.8" font-family="Roboto" font-size="8.00">    </text>
<text text-anchor="start" x="246.66" y="-587.2" font-family="Roboto" font-size="8.00">    </text>
<text text-anchor="start" x="254.66" y="-587.2" font-family="Roboto" font-style="italic" font-size="8.00">date_joined</text>
<text text-anchor="start" x="292.43" y="-587.2" font-family="Roboto" font-size="8.00">    </text>
<text text-anchor="start" x="307.55" y="-587.2" font-family="Roboto" font-size="8.00">    </text>
<text text-anchor="start" x="315.55" y="-587.2" font-family="Roboto" font-style="italic" font-size="8.00">DateTimeField</text>
<text text-anchor="start" x="363.98" y="-587.2" font-family="Roboto" font-size="8.00">    </text>
<text text-anchor="start" x="246.66" y="-573.6" font-family="Roboto" font-size="8.00">    </text>
<text text-anchor="start" x="254.66" y="-573.6" font-family="Roboto" font-style="italic" font-size="8.00" fill="#7b7b7b">email</text>
<text text-anchor="start" x="272.43" y="-573.6" font-family="Roboto" font-size="8.00">    </text>
<text text-anchor="start" x="307.55" y="-573.6" font-family="Roboto" font-size="8.00">    </text>
<text text-anchor="start" x="315.55" y="-573.6" font-family="Roboto" font-style="italic" font-size="8.00" fill="#7b7b7b">EmailField</text>
<text text-anchor="start" x="351.54" y="-573.6" font-family="Roboto" font-size="8.00">    </text>
<text text-anchor="start" x="246.66" y="-560" font-family="Roboto" font-size="8.00">    </text>
<text text-anchor="start" x="254.66" y="-560" font-family="Roboto" font-style="italic" font-size="8.00" fill="#7b7b7b">first_name</text>
<text text-anchor="start" x="288.88" y="-560" font-family="Roboto" font-size="8.00">    </text>
<text text-anchor="start" x="307.55" y="-560" font-family="Roboto" font-size="8.00">    </text>
<text text-anchor="start" x="315.55" y="-560" font-family="Roboto" font-style="italic" font-size="8.00" fill="#7b7b7b">CharField</text>
<text text-anchor="start" x="348.88" y="-560" font-family="Roboto" font-size="8.00">    </text>
<text text-anchor="start" x="246.66" y="-546.4" font-family="Roboto" font-size="8.00">    </text>
<text text-anchor="start" x="254.66" y="-546.4" font-family="Roboto" font-style="italic" font-size="8.00">is_active</text>
<text text-anchor="start" x="283.09" y="-546.4" font-family="Roboto" font-size="8.00">    </text>
<text text-anchor="start" x="307.55" y="-546.4" font-family="Roboto" font-size="8.00">    </text>
<text text-anchor="start" x="315.55" y="-546.4" font-family="Roboto" font-style="italic" font-size="8.00">BooleanField</text>
<text text-anchor="start" x="359.09" y="-546.4" font-family="Roboto" font-size="8.00">    </text>
<text text-anchor="start" x="246.66" y="-532.8" font-family="Roboto" font-size="8.00">    </text>
<text text-anchor="start" x="254.66" y="-532.8" font-family="Roboto" font-style="italic" font-size="8.00">is_staff</text>
<text text-anchor="start" x="277.77" y="-532.8" font-family="Roboto" font-size="8.00">    </text>
<text text-anchor="start" x="307.55" y="-532.8" font-family="Roboto" font-size="8.00">    </text>
<text text-anchor="start" x="315.55" y="-532.8" font-family="Roboto" font-style="italic" font-size="8.00">BooleanField</text>
<text text-anchor="start" x="359.09" y="-532.8" font-family="Roboto" font-size="8.00">    </text>
<text text-anchor="start" x="246.66" y="-519.2" font-family="Roboto" font-size="8.00">    </text>
<text text-anchor="start" x="254.66" y="-519.2" font-family="Roboto" font-style="italic" font-size="8.00">is_superuser</text>
<text text-anchor="start" x="295.55" y="-519.2" font-family="Roboto" font-size="8.00">    </text>
<text text-anchor="start" x="307.55" y="-519.2" font-family="Roboto" font-size="8.00">    </text>
<text text-anchor="start" x="315.55" y="-519.2" font-family="Roboto" font-style="italic" font-size="8.00">BooleanField</text>
<text text-anchor="start" x="359.09" y="-519.2" font-family="Roboto" font-size="8.00">    </text>
<text text-anchor="start" x="246.66" y="-505.6" font-family="Roboto" font-size="8.00">    </text>
<text text-anchor="start" x="254.66" y="-505.6" font-family="Roboto" font-style="italic" font-size="8.00" fill="#7b7b7b">last_login</text>
<text text-anchor="start" x="286.66" y="-505.6" font-family="Roboto" font-size="8.00">    </text>
<text text-anchor="start" x="307.55" y="-505.6" font-family="Roboto" font-size="8.00">    </text>
<text text-anchor="start" x="315.55" y="-505.6" font-family="Roboto" font-style="italic" font-size="8.00" fill="#7b7b7b">DateTimeField</text>
<text text-anchor="start" x="363.98" y="-505.6" font-family="Roboto" font-size="8.00">    </text>
<text text-anchor="start" x="246.66" y="-492" font-family="Roboto" font-size="8.00">    </text>
<text text-anchor="start" x="254.66" y="-492" font-family="Roboto" font-style="italic" font-size="8.00" fill="#7b7b7b">last_name</text>
<text text-anchor="start" x="287.54" y="-492" font-family="Roboto" font-size="8.00">    </text>
<text text-anchor="start" x="307.55" y="-492" font-family="Roboto" font-size="8.00">    </text>
<text text-anchor="start" x="315.55" y="-492" font-family="Roboto" font-style="italic" font-size="8.00" fill="#7b7b7b">CharField</text>
<text text-anchor="start" x="348.88" y="-492" font-family="Roboto" font-size="8.00">    </text>
<text text-anchor="start" x="246.66" y="-478.4" font-family="Roboto" font-size="8.00">    </text>
<text text-anchor="start" x="254.66" y="-478.4" font-family="Roboto" font-style="italic" font-size="8.00">password</text>
<text text-anchor="start" x="285.33" y="-478.4" font-family="Roboto" font-size="8.00">    </text>
<text text-anchor="start" x="307.55" y="-478.4" font-family="Roboto" font-size="8.00">    </text>
<text text-anchor="start" x="315.55" y="-478.4" font-family="Roboto" font-style="italic" font-size="8.00">CharField</text>
<text text-anchor="start" x="348.88" y="-478.4" font-family="Roboto" font-size="8.00">    </text>
<text text-anchor="start" x="246.66" y="-464.8" font-family="Roboto" font-size="8.00">    </text>
<text text-anchor="start" x="254.66" y="-464.8" font-family="Roboto" font-style="italic" font-size="8.00">username</text>
<text text-anchor="start" x="285.76" y="-464.8" font-family="Roboto" font-size="8.00">    </text>
<text text-anchor="start" x="307.55" y="-464.8" font-family="Roboto" font-size="8.00">    </text>
<text text-anchor="start" x="315.55" y="-464.8" font-family="Roboto" font-style="italic" font-size="8.00">CharField</text>
<text text-anchor="start" x="348.88" y="-464.8" font-family="Roboto" font-size="8.00">    </text>
<polygon fill="none" stroke="black" points="243.66,-458.4 243.66,-640 374.98,-640 374.98,-458.4 243.66,-458.4"/>
</g>
<!-- api_models_User&#45;&gt;django_contrib_auth_models_AbstractUser -->
<g id="edge5" class="edge">
<title>api_models_User-&gt;django_contrib_auth_models_AbstractUser</title>
<path fill="none" stroke="black" d="M255.37,-454.59C246.73,-439.6 237.78,-424.06 229.1,-408.99"/>
<polygon fill="none" stroke="black" points="232.22,-407.4 224.2,-400.49 226.16,-410.9 232.22,-407.4"/>
<text text-anchor="middle" x="259.09" y="-429.2" font-family="Roboto" font-size="8.00"> abstract</text>
<text text-anchor="middle" x="259.09" y="-419.6" font-family="Roboto" font-size="8.00">inheritance</text>
</g>
<!-- django_contrib_auth_models_Permission -->
<g id="node6" class="node">
<title>django_contrib_auth_models_Permission</title>
<polygon fill="white" stroke="none" points="288.11,-85.6 288.11,-164 428.53,-164 428.53,-85.6 288.11,-85.6"/>
<polygon fill="#1b563f" stroke="none" points="289.11,-141 289.11,-163 427.53,-163 427.53,-141 289.11,-141"/>
<text text-anchor="start" x="320.71" y="-150" font-family="Roboto" font-size="8.00">    </text>
<text text-anchor="start" x="328.71" y="-150" font-family="Roboto" font-weight="bold" font-size="10.00" fill="white">    Permission    </text>
<text text-anchor="start" x="291.11" y="-132.8" font-family="Roboto" font-size="8.00">    </text>
<text text-anchor="start" x="299.11" y="-132.8" font-family="Roboto" font-weight="bold" font-size="8.00">id</text>
<text text-anchor="start" x="305.78" y="-132.8" font-family="Roboto" font-size="8.00">    </text>
<text text-anchor="start" x="355.1" y="-132.8" font-family="Roboto" font-size="8.00">    </text>
<text text-anchor="start" x="363.1" y="-132.8" font-family="Roboto" font-weight="bold" font-size="8.00">AutoField</text>
<text text-anchor="start" x="397.32" y="-132.8" font-family="Roboto" font-size="8.00">    </text>
<text text-anchor="start" x="291.11" y="-119.2" font-family="Roboto" font-size="8.00">    </text>
<text text-anchor="start" x="299.11" y="-119.2" font-family="Roboto" font-weight="bold" font-size="8.00">content_type</text>
<text text-anchor="start" x="343.1" y="-119.2" font-family="Roboto" font-size="8.00">    </text>
<text text-anchor="start" x="355.1" y="-119.2" font-family="Roboto" font-size="8.00">    </text>
<text text-anchor="start" x="363.1" y="-119.2" font-family="Roboto" font-weight="bold" font-size="8.00">ForeignKey (id)</text>
<text text-anchor="start" x="417.53" y="-119.2" font-family="Roboto" font-size="8.00">    </text>
<text text-anchor="start" x="291.11" y="-105.6" font-family="Roboto" font-size="8.00">    </text>
<text text-anchor="start" x="299.11" y="-105.6" font-family="Roboto" font-size="8.00">codename</text>
<text text-anchor="start" x="331.53" y="-105.6" font-family="Roboto" font-size="8.00">    </text>
<text text-anchor="start" x="355.1" y="-105.6" font-family="Roboto" font-size="8.00">    </text>
<text text-anchor="start" x="363.1" y="-105.6" font-family="Roboto" font-size="8.00">CharField</text>
<text text-anchor="start" x="395.09" y="-105.6" font-family="Roboto" font-size="8.00">    </text>
<text text-anchor="start" x="291.11" y="-92" font-family="Roboto" font-size="8.00">    </text>
<text text-anchor="start" x="299.11" y="-92" font-family="Roboto" font-size="8.00">name</text>
<text text-anchor="start" x="316.43" y="-92" font-family="Roboto" font-size="8.00">    </text>
<text text-anchor="start" x="355.1" y="-92" font-family="Roboto" font-size="8.00">    </text>
<text text-anchor="start" x="363.1" y="-92" font-family="Roboto" font-size="8.00">CharField</text>
<text text-anchor="start" x="395.09" y="-92" font-family="Roboto" font-size="8.00">    </text>
<polygon fill="none" stroke="black" points="288.11,-85.6 288.11,-164 428.53,-164 428.53,-85.6 288.11,-85.6"/>
</g>
<!-- api_models_User&#45;&gt;django_contrib_auth_models_Permission -->
<g id="edge4" class="edge">
<title>api_models_User-&gt;django_contrib_auth_models_Permission</title>
<path fill="none" stroke="black" d="M302.65,-445.72C300.76,-381.17 302.54,-296.5 318.11,-223.2 321.48,-207.35 327.33,-190.8 333.54,-175.94"/>
<ellipse fill="black" stroke="black" cx="302.79" cy="-450.19" rx="4" ry="4"/>
<ellipse fill="black" stroke="black" cx="335.24" cy="-172.01" rx="4" ry="4"/>
<text text-anchor="middle" x="357.21" y="-308.8" font-family="Roboto" font-size="8.00"> user_permissions (user)</text>
</g>
<!-- django_contrib_auth_models_Group -->
<g id="node7" class="node">
<title>django_contrib_auth_models_Group</title>
<polygon fill="white" stroke="none" points="413.54,-285.6 413.54,-336.8 507.09,-336.8 507.09,-285.6 413.54,-285.6"/>
<polygon fill="#1b563f" stroke="none" points="414.54,-313.8 414.54,-335.8 506.09,-335.8 506.09,-313.8 414.54,-313.8"/>
<text text-anchor="start" x="432.15" y="-322.8" font-family="Roboto" font-size="8.00">    </text>
<text text-anchor="start" x="440.15" y="-322.8" font-family="Roboto" font-weight="bold" font-size="10.00" fill="white">    Group    </text>
<text text-anchor="start" x="416.54" y="-305.6" font-family="Roboto" font-size="8.00">    </text>
<text text-anchor="start" x="424.54" y="-305.6" font-family="Roboto" font-weight="bold" font-size="8.00">id</text>
<text text-anchor="start" x="431.22" y="-305.6" font-family="Roboto" font-size="8.00">    </text>
<text text-anchor="start" x="453.87" y="-305.6" font-family="Roboto" font-size="8.00">    </text>
<text text-anchor="start" x="461.87" y="-305.6" font-family="Roboto" font-weight="bold" font-size="8.00">AutoField</text>
<text text-anchor="start" x="496.09" y="-305.6" font-family="Roboto" font-size="8.00">    </text>
<text text-anchor="start" x="416.54" y="-292" font-family="Roboto" font-size="8.00">    </text>
<text text-anchor="start" x="424.54" y="-292" font-family="Roboto" font-size="8.00">name</text>
<text text-anchor="start" x="441.87" y="-292" font-family="Roboto" font-size="8.00">    </text>
<text text-anchor="start" x="453.87" y="-292" font-family="Roboto" font-size="8.00">    </text>
<text text-anchor="start" x="461.87" y="-292" font-family="Roboto" font-size="8.00">CharField</text>
<text text-anchor="start" x="493.87" y="-292" font-family="Roboto" font-size="8.00">    </text>
<polygon fill="none" stroke="black" points="413.54,-285.6 413.54,-336.8 507.09,-336.8 507.09,-285.6 413.54,-285.6"/>
</g>
<!-- api_models_User&#45;&gt;django_contrib_auth_models_Group -->
<g id="edge3" class="edge">
<title>api_models_User-&gt;django_contrib_auth_models_Group</title>
<path fill="none" stroke="black" d="M373.83,-447.38C396.41,-412.08 420.34,-374.68 437.29,-348.19"/>
<ellipse fill="black" stroke="black" cx="371.64" cy="-450.8" rx="4" ry="4"/>
<ellipse fill="black" stroke="black" cx="439.67" cy="-344.47" rx="4" ry="4"/>
<text text-anchor="middle" x="411.56" y="-424.4" font-family="Roboto" font-size="8.00"> groups (user)</text>
</g>
<!-- api_models_Product -->
<g id="node3" class="node">
<title>api_models_Product</title>
<polygon fill="white" stroke="none" points="56.33,-693.6 56.33,-799.2 210.31,-799.2 210.31,-693.6 56.33,-693.6"/>
<polygon fill="#1b563f" stroke="none" points="57.33,-776.2 57.33,-798.2 209.31,-798.2 209.31,-776.2 57.33,-776.2"/>
<text text-anchor="start" x="102.1" y="-785.2" font-family="Roboto" font-size="8.00">    </text>
<text text-anchor="start" x="110.1" y="-785.2" font-family="Roboto" font-weight="bold" font-size="10.00" fill="white">    Product    </text>
<text text-anchor="start" x="59.33" y="-768" font-family="Roboto" font-size="8.00">    </text>
<text text-anchor="start" x="67.33" y="-768" font-family="Roboto" font-weight="bold" font-size="8.00">id</text>
<text text-anchor="start" x="74" y="-768" font-family="Roboto" font-size="8.00">    </text>
<text text-anchor="start" x="114.87" y="-768" font-family="Roboto" font-size="8.00">    </text>
<text text-anchor="start" x="122.87" y="-768" font-family="Roboto" font-weight="bold" font-size="8.00">BigAutoField</text>
<text text-anchor="start" x="168.65" y="-768" font-family="Roboto" font-size="8.00">    </text>
<text text-anchor="start" x="59.33" y="-754.4" font-family="Roboto" font-size="8.00">    </text>
<text text-anchor="start" x="67.33" y="-754.4" font-family="Roboto" font-size="8.00">description</text>
<text text-anchor="start" x="102.87" y="-754.4" font-family="Roboto" font-size="8.00">    </text>
<text text-anchor="start" x="114.87" y="-754.4" font-family="Roboto" font-size="8.00">    </text>
<text text-anchor="start" x="122.87" y="-754.4" font-family="Roboto" font-size="8.00">TextField</text>
<text text-anchor="start" x="153.98" y="-754.4" font-family="Roboto" font-size="8.00">    </text>
<text text-anchor="start" x="59.33" y="-740.8" font-family="Roboto" font-size="8.00">    </text>
<text text-anchor="start" x="67.33" y="-740.8" font-family="Roboto" font-size="8.00" fill="#7b7b7b">image</text>
<text text-anchor="start" x="86.87" y="-740.8" font-family="Roboto" font-size="8.00">    </text>
<text text-anchor="start" x="114.87" y="-740.8" font-family="Roboto" font-size="8.00">    </text>
<text text-anchor="start" x="122.87" y="-740.8" font-family="Roboto" font-size="8.00" fill="#7b7b7b">ImageField</text>
<text text-anchor="start" x="159.31" y="-740.8" font-family="Roboto" font-size="8.00">    </text>
<text text-anchor="start" x="59.33" y="-727.2" font-family="Roboto" font-size="8.00">    </text>
<text text-anchor="start" x="67.33" y="-727.2" font-family="Roboto" font-size="8.00">name</text>
<text text-anchor="start" x="84.65" y="-727.2" font-family="Roboto" font-size="8.00">    </text>
<text text-anchor="start" x="114.87" y="-727.2" font-family="Roboto" font-size="8.00">    </text>
<text text-anchor="start" x="122.87" y="-727.2" font-family="Roboto" font-size="8.00">CharField</text>
<text text-anchor="start" x="154.87" y="-727.2" font-family="Roboto" font-size="8.00">    </text>
<text text-anchor="start" x="59.33" y="-713.6" font-family="Roboto" font-size="8.00">    </text>
<text text-anchor="start" x="67.33" y="-713.6" font-family="Roboto" font-size="8.00">price</text>
<text text-anchor="start" x="83.31" y="-713.6" font-family="Roboto" font-size="8.00">    </text>
<text text-anchor="start" x="114.87" y="-713.6" font-family="Roboto" font-size="8.00">    </text>
<text text-anchor="start" x="122.87" y="-713.6" font-family="Roboto" font-size="8.00">DecimalField</text>
<text text-anchor="start" x="166.42" y="-713.6" font-family="Roboto" font-size="8.00">    </text>
<text text-anchor="start" x="59.33" y="-700" font-family="Roboto" font-size="8.00">    </text>
<text text-anchor="start" x="67.33" y="-700" font-family="Roboto" font-size="8.00">stock</text>
<text text-anchor="start" x="84.21" y="-700" font-family="Roboto" font-size="8.00">    </text>
<text text-anchor="start" x="114.87" y="-700" font-family="Roboto" font-size="8.00">    </text>
<text text-anchor="start" x="122.87" y="-700" font-family="Roboto" font-size="8.00">PositiveBigIntegerField</text>
<text text-anchor="start" x="199.31" y="-700" font-family="Roboto" font-size="8.00">    </text>
<polygon fill="none" stroke="black" points="56.33,-693.6 56.33,-799.2 210.31,-799.2 210.31,-693.6 56.33,-693.6"/>
</g>
<!-- api_models_Order -->
<g id="node4" class="node">
<title>api_models_Order</title>
<polygon fill="white" stroke="none" points="244.67,-707.2 244.67,-785.6 373.97,-785.6 373.97,-707.2 244.67,-707.2"/>
<polygon fill="#1b563f" stroke="none" points="245.67,-762.6 245.67,-784.6 372.97,-784.6 372.97,-762.6 245.67,-762.6"/>
<text text-anchor="start" x="281.99" y="-771.6" font-family="Roboto" font-size="8.00">    </text>
<text text-anchor="start" x="289.99" y="-771.6" font-family="Roboto" font-weight="bold" font-size="10.00" fill="white">    Order    </text>
<text text-anchor="start" x="247.67" y="-754.4" font-family="Roboto" font-size="8.00">    </text>
<text text-anchor="start" x="255.67" y="-754.4" font-family="Roboto" font-weight="bold" font-size="8.00">order_id</text>
<text text-anchor="start" x="285.44" y="-754.4" font-family="Roboto" font-size="8.00">    </text>
<text text-anchor="start" x="300.53" y="-754.4" font-family="Roboto" font-size="8.00">    </text>
<text text-anchor="start" x="308.53" y="-754.4" font-family="Roboto" font-weight="bold" font-size="8.00">UUIDField</text>
<text text-anchor="start" x="346.31" y="-754.4" font-family="Roboto" font-size="8.00">    </text>
<text text-anchor="start" x="247.67" y="-740.8" font-family="Roboto" font-size="8.00">    </text>
<text text-anchor="start" x="255.67" y="-740.8" font-family="Roboto" font-weight="bold" font-size="8.00">user</text>
<text text-anchor="start" x="270.33" y="-740.8" font-family="Roboto" font-size="8.00">    </text>
<text text-anchor="start" x="300.53" y="-740.8" font-family="Roboto" font-size="8.00">    </text>
<text text-anchor="start" x="308.53" y="-740.8" font-family="Roboto" font-weight="bold" font-size="8.00">ForeignKey (id)</text>
<text text-anchor="start" x="362.97" y="-740.8" font-family="Roboto" font-size="8.00">    </text>
<text text-anchor="start" x="247.67" y="-727.2" font-family="Roboto" font-size="8.00">    </text>
<text text-anchor="start" x="255.67" y="-727.2" font-family="Roboto" font-size="8.00" fill="#7b7b7b">created_at</text>
<text text-anchor="start" x="288.53" y="-727.2" font-family="Roboto" font-size="8.00">    </text>
<text text-anchor="start" x="300.53" y="-727.2" font-family="Roboto" font-size="8.00">    </text>
<text text-anchor="start" x="308.53" y="-727.2" font-family="Roboto" font-size="8.00" fill="#7b7b7b">DateTimeField</text>
<text text-anchor="start" x="356.96" y="-727.2" font-family="Roboto" font-size="8.00">    </text>
<text text-anchor="start" x="247.67" y="-713.6" font-family="Roboto" font-size="8.00">    </text>
<text text-anchor="start" x="255.67" y="-713.6" font-family="Roboto" font-size="8.00">status</text>
<text text-anchor="start" x="273.89" y="-713.6" font-family="Roboto" font-size="8.00">    </text>
<text text-anchor="start" x="300.53" y="-713.6" font-family="Roboto" font-size="8.00">    </text>
<text text-anchor="start" x="308.53" y="-713.6" font-family="Roboto" font-size="8.00">CharField</text>
<text text-anchor="start" x="340.53" y="-713.6" font-family="Roboto" font-size="8.00">    </text>
<polygon fill="none" stroke="black" points="244.67,-707.2 244.67,-785.6 373.97,-785.6 373.97,-707.2 244.67,-707.2"/>
</g>
<!-- api_models_Order&#45;&gt;api_models_User -->
<g id="edge6" class="edge">
<title>api_models_Order-&gt;api_models_User</title>
<path fill="none" stroke="black" d="M309.32,-694.59C309.32,-678.98 309.32,-661.28 309.32,-643.75"/>
<ellipse fill="black" stroke="black" cx="309.32" cy="-699.02" rx="4" ry="4"/>
<text text-anchor="middle" x="330.64" y="-664.4" font-family="Roboto" font-size="8.00"> user (orders)</text>
</g>
<!-- api_models_OrderItem -->
<g id="node5" class="node">
<title>api_models_OrderItem</title>
<polygon fill="white" stroke="none" points="103.99,-852.8 103.99,-931.2 250.64,-931.2 250.64,-852.8 103.99,-852.8"/>
<polygon fill="#1b563f" stroke="none" points="104.99,-908.2 104.99,-930.2 249.64,-930.2 249.64,-908.2 104.99,-908.2"/>
<text text-anchor="start" x="140" y="-917.2" font-family="Roboto" font-size="8.00">    </text>
<text text-anchor="start" x="148" y="-917.2" font-family="Roboto" font-weight="bold" font-size="10.00" fill="white">    OrderItem    </text>
<text text-anchor="start" x="106.99" y="-900" font-family="Roboto" font-size="8.00">    </text>
<text text-anchor="start" x="114.99" y="-900" font-family="Roboto" font-weight="bold" font-size="8.00">id</text>
<text text-anchor="start" x="121.67" y="-900" font-family="Roboto" font-size="8.00">    </text>
<text text-anchor="start" x="154.11" y="-900" font-family="Roboto" font-size="8.00">    </text>
<text text-anchor="start" x="162.11" y="-900" font-family="Roboto" font-weight="bold" font-size="8.00">BigAutoField</text>
<text text-anchor="start" x="207.89" y="-900" font-family="Roboto" font-size="8.00">    </text>
<text text-anchor="start" x="106.99" y="-886.4" font-family="Roboto" font-size="8.00">    </text>
<text text-anchor="start" x="114.99" y="-886.4" font-family="Roboto" font-weight="bold" font-size="8.00">order</text>
<text text-anchor="start" x="134.1" y="-886.4" font-family="Roboto" font-size="8.00">    </text>
<text text-anchor="start" x="154.11" y="-886.4" font-family="Roboto" font-size="8.00">    </text>
<text text-anchor="start" x="162.11" y="-886.4" font-family="Roboto" font-weight="bold" font-size="8.00">ForeignKey (order_id)</text>
<text text-anchor="start" x="239.64" y="-886.4" font-family="Roboto" font-size="8.00">    </text>
<text text-anchor="start" x="106.99" y="-872.8" font-family="Roboto" font-size="8.00">    </text>
<text text-anchor="start" x="114.99" y="-872.8" font-family="Roboto" font-weight="bold" font-size="8.00">product</text>
<text text-anchor="start" x="142.11" y="-872.8" font-family="Roboto" font-size="8.00">    </text>
<text text-anchor="start" x="154.11" y="-872.8" font-family="Roboto" font-size="8.00">    </text>
<text text-anchor="start" x="162.11" y="-872.8" font-family="Roboto" font-weight="bold" font-size="8.00">ForeignKey (id)</text>
<text text-anchor="start" x="216.54" y="-872.8" font-family="Roboto" font-size="8.00">    </text>
<text text-anchor="start" x="106.99" y="-859.2" font-family="Roboto" font-size="8.00">    </text>
<text text-anchor="start" x="114.99" y="-859.2" font-family="Roboto" font-size="8.00">quantity</text>
<text text-anchor="start" x="141.21" y="-859.2" font-family="Roboto" font-size="8.00">    </text>
<text text-anchor="start" x="154.11" y="-859.2" font-family="Roboto" font-size="8.00">    </text>
<text text-anchor="start" x="162.11" y="-859.2" font-family="Roboto" font-size="8.00">PositiveIntegerField</text>
<text text-anchor="start" x="226.99" y="-859.2" font-family="Roboto" font-size="8.00">    </text>
<polygon fill="none" stroke="black" points="103.99,-852.8 103.99,-931.2 250.64,-931.2 250.64,-852.8 103.99,-852.8"/>
</g>
<!-- api_models_OrderItem&#45;&gt;api_models_Product -->
<g id="edge8" class="edge">
<title>api_models_OrderItem-&gt;api_models_Product</title>
<path fill="none" stroke="black" d="M161.93,-840.79C158.19,-828.58 154.17,-815.44 150.35,-803"/>
<ellipse fill="black" stroke="black" cx="163.16" cy="-844.78" rx="4" ry="4"/>
<text text-anchor="middle" x="190.38" y="-823.6" font-family="Roboto" font-size="8.00"> product (orderitem)</text>
</g>
<!-- api_models_OrderItem&#45;&gt;api_models_Order -->
<g id="edge7" class="edge">
<title>api_models_OrderItem-&gt;api_models_Order</title>
<path fill="none" stroke="black" d="M221.65,-842.77C237.64,-825.38 255.53,-805.91 270.96,-789.12"/>
<ellipse fill="black" stroke="black" cx="218.9" cy="-845.77" rx="4" ry="4"/>
<text text-anchor="middle" x="261.13" y="-823.6" font-family="Roboto" font-size="8.00"> order (items)</text>
</g>
<!-- django_contrib_contenttypes_models_ContentType -->
<g id="node10" class="node">
<title>django_contrib_contenttypes_models_ContentType</title>
<polygon fill="white" stroke="none" points="318.99,-6.8 318.99,-29.2 397.65,-29.2 397.65,-6.8 318.99,-6.8"/>
<polygon fill="#1b563f" stroke="none" points="318.99,-6.8 318.99,-29.2 397.65,-29.2 397.65,-6.8 318.99,-6.8"/>
<text text-anchor="start" x="322.99" y="-15.4" font-family="Roboto" font-size="8.00">  </text>
<text text-anchor="start" x="326.99" y="-15.4" font-family="Roboto" font-size="12.00" fill="white">ContentType</text>
<text text-anchor="start" x="389.65" y="-15.4" font-family="Roboto" font-size="8.00">  </text>
</g>
<!-- django_contrib_auth_models_Permission&#45;&gt;django_contrib_contenttypes_models_ContentType -->
<g id="edge9" class="edge">
<title>django_contrib_auth_models_Permission-&gt;django_contrib_contenttypes_models_ContentType</title>
<path fill="none" stroke="black" d="M358.32,-73.03C358.32,-59.62 358.32,-46.08 358.32,-35.9"/>
<ellipse fill="black" stroke="black" cx="358.32" cy="-77.28" rx="4" ry="4"/>
<text text-anchor="middle" x="401.2" y="-56.4" font-family="Roboto" font-size="8.00"> content_type (permission)</text>
</g>
<!-- django_contrib_auth_models_Group&#45;&gt;django_contrib_auth_models_Permission -->
<g id="edge10" class="edge">
<title>django_contrib_auth_models_Group-&gt;django_contrib_auth_models_Permission</title>
<path fill="none" stroke="black" d="M440.27,-273.96C424.74,-245.89 403.06,-206.68 385.89,-175.65"/>
<ellipse fill="black" stroke="black" cx="442.43" cy="-277.85" rx="4" ry="4"/>
<ellipse fill="black" stroke="black" cx="383.81" cy="-171.89" rx="4" ry="4"/>
<text text-anchor="middle" x="433.29" y="-193.2" font-family="Roboto" font-size="8.00"> permissions (group)</text>
</g>
</g>
</svg>